<?xml version="1.0" encoding="UTF-8" standalone="no"?><!-- Generator: Gravit.io --><svg xmlns="http://www.w3.org/2000/svg" xmlns:xlink="http://www.w3.org/1999/xlink" style="isolation:isolate" viewBox="0 0 512 512" width="512pt" height="512pt"><defs><clipPath id="_clipPath_ByHfBep7Ck81JzjDOmpgiitJdAvmdAzv"><rect width="512" height="512"/></clipPath></defs><g clip-path="url(#_clipPath_ByHfBep7Ck81JzjDOmpgiitJdAvmdAzv)"><rect width="512" height="512" style="fill:rgb(235,235,235)" fill-opacity="0"/><rect x="0" y="0" width="512" height="512" transform="matrix(1,0,0,1,0,0)" fill="rgb(208,196,167)"/><g><path d=" M 256 385.321 C 211.493 450.599 88.652 448.819 90.432 371.079 C 104.433 394.01 122.458 391.512 143.791 380.477 C 168.418 351.419 206.546 317.15 256 330.132 L 256 330.132 C 305.454 317.15 343.582 351.419 368.209 380.477 C 389.542 391.512 407.567 394.01 421.568 371.079 C 423.348 448.819 300.507 450.599 256 385.321 L 256 385.321 C 256 385.321 256 385.321 256 385.321 Z " fill="rgb(47,43,44)"/><g><path d=" M 256 144.981 Q 235.888 148.128 222.174 214.413 C 217.334 237.807 216.833 252.077 216.833 251.799 C 216.333 273.607 181.033 282.62 181.227 299.867 C 181.349 310.593 183.259 344.983 228.356 335.672 Q 235.01 349.715 256 349.715 L 256 349.715 L 256 349.715 Q 276.99 349.715 283.644 335.672 C 328.741 344.983 330.651 310.593 330.773 299.867 C 330.967 282.62 295.667 273.607 295.167 251.799 C 295.167 252.077 294.666 237.807 289.826 214.413 Q 276.112 148.128 256 144.981 Z " fill="rgb(254,227,220)"/><path d=" M 298.727 335.672 Q 323.651 328.852 311.189 321.23 C 301.875 315.534 293.219 319.76 286.265 331.912 Q 284.04 334.313 298.727 335.672 Z " fill="rgb(248,204,186)"/><path d=" M 213.273 335.672 Q 188.349 328.852 200.811 321.23 C 210.125 315.534 218.781 319.76 225.735 331.912 Q 227.96 334.313 213.273 335.672 Z " fill="rgb(248,204,186)"/></g><path d=" M 217.13 176.24 L 212.58 178.31 L 208.43 169.21 L 212.98 167.14 C 216.54 165.51 220.18 164.07 223.88 162.82 C 227.35 161.64 230.89 160.65 234.47 159.86 C 237.89 159.09 241.35 158.52 244.84 158.13 C 248.25 157.75 251.68 157.56 255.11 157.56 C 258.54 157.56 261.97 157.75 265.38 158.13 C 268.87 158.52 272.33 159.09 275.75 159.86 C 279.33 160.65 282.87 161.64 286.34 162.82 C 290.04 164.07 293.68 165.51 297.24 167.14 L 301.79 169.21 L 297.64 178.31 L 293.09 176.24 C 289.84 174.75 286.52 173.44 283.13 172.29 C 280 171.23 276.81 170.34 273.58 169.62 C 270.51 168.93 267.4 168.42 264.28 168.07 C 261.23 167.73 258.17 167.56 255.11 167.56 C 252.05 167.56 248.99 167.73 245.94 168.07 C 242.82 168.42 239.71 168.93 236.64 169.62 C 233.41 170.34 230.22 171.23 227.09 172.29 C 223.7 173.44 220.38 174.75 217.13 176.24 Z " fill="rgb(47,43,44)"/><g><circle vector-effect="non-scaling-stroke" cx="138.50029181208333" cy="169.01493044539154" r="89.01493044539151" fill="rgb(47,43,44)"/><circle vector-effect="non-scaling-stroke" cx="138.50029181208322" cy="169.0149304453917" r="70.32179505185934" fill="rgb(255,255,255)"/></g><g><circle vector-effect="non-scaling-stroke" cx="373.4997081879168" cy="169.01493044539154" r="89.01493044539149" fill="rgb(47,43,44)"/><circle vector-effect="non-scaling-stroke" cx="373.4997081879164" cy="169.01493044539166" r="70.32179505185934" fill="rgb(255,255,255)"/></g></g></g></svg>